<svg xmlns="http://www.w3.org/2000/svg" viewBox="0 0 400 300" class="w-full h-full">
  <!-- Background gradient -->
  <defs>
    <linearGradient id="quranBackground" x1="0%" y1="0%" x2="100%" y2="100%">
      <stop offset="0%" style="stop-color:#0f4c75;stop-opacity:1" />
      <stop offset="50%" style="stop-color:#3282b8;stop-opacity:1" />
      <stop offset="100%" style="stop-color:#bbe1fa;stop-opacity:1" />
    </linearGradient>
    
    <!-- Book pages gradient -->
    <linearGradient id="pageGradient" x1="0%" y1="0%" x2="100%" y2="100%">
      <stop offset="0%" style="stop-color:#ffffff;stop-opacity:0.95" />
      <stop offset="100%" style="stop-color:#f8f8ff;stop-opacity:0.9" />
    </linearGradient>
    
    <!-- Arabic text gradient -->
    <linearGradient id="arabicGradient" x1="0%" y1="0%" x2="100%" y2="0%">
      <stop offset="0%" style="stop-color:#2c3e50;stop-opacity:1" />
      <stop offset="100%" style="stop-color:#34495e;stop-opacity:1" />
    </linearGradient>
    
    <!-- Search glow effect -->
    <filter id="searchGlow">
      <feGaussianBlur stdDeviation="3" result="coloredBlur"/>
      <feMerge> 
        <feMergeNode in="coloredBlur"/>
        <feMergeNode in="SourceGraphic"/>
      </feMerge>
    </filter>
    
    <!-- Light rays -->
    <radialGradient id="lightRays" cx="50%" cy="30%" r="70%">
      <stop offset="0%" style="stop-color:#ffffff;stop-opacity:0.3" />
      <stop offset="100%" style="stop-color:#ffffff;stop-opacity:0" />
    </radialGradient>
  </defs>
  
  <!-- Main background -->
  <rect width="400" height="300" fill="url(#quranBackground)" />
  
  <!-- Light rays from top -->
  <ellipse cx="200" cy="50" rx="180" ry="120" fill="url(#lightRays)" opacity="0.6"/>
  
  <!-- Open book representation -->
  <g transform="translate(100,80)">
    <!-- Left page -->
    <path d="M0,20 Q0,10 10,10 L90,10 Q100,10 100,20 L100,140 Q100,150 90,150 L10,150 Q0,150 0,140 Z" 
          fill="url(#pageGradient)" stroke="#e0e0e0" stroke-width="1"/>
    
    <!-- Right page -->
    <path d="M100,20 Q100,10 110,10 L190,10 Q200,10 200,20 L200,140 Q200,150 190,150 L110,150 Q100,150 100,140 Z" 
          fill="url(#pageGradient)" stroke="#e0e0e0" stroke-width="1"/>
    
    <!-- Book spine -->
    <rect x="95" y="10" width="10" height="140" fill="#2c3e50" opacity="0.8"/>
    
    <!-- Arabic text simulation - Left page -->
    <g opacity="0.8">
      <!-- Bismillah style header -->
      <text x="50" y="35" text-anchor="middle" font-family="serif" font-size="10" 
            fill="url(#arabicGradient)" font-weight="bold">بسم الله الرحمن الرحيم</text>
      
      <!-- Simulated Arabic verses -->
      <rect x="15" y="45" width="70" height="1.5" fill="#34495e" opacity="0.7" rx="0.5"/>
      <rect x="15" y="55" width="60" height="1.5" fill="#34495e" opacity="0.7" rx="0.5"/>
      <rect x="15" y="65" width="75" height="1.5" fill="#34495e" opacity="0.7" rx="0.5"/>
      <rect x="15" y="75" width="65" height="1.5" fill="#34495e" opacity="0.7" rx="0.5"/>
      <rect x="15" y="85" width="80" height="1.5" fill="#34495e" opacity="0.7" rx="0.5"/>
      <rect x="15" y="95" width="55" height="1.5" fill="#34495e" opacity="0.7" rx="0.5"/>
      <rect x="15" y="105" width="70" height="1.5" fill="#34495e" opacity="0.7" rx="0.5"/>
      <rect x="15" y="115" width="75" height="1.5" fill="#34495e" opacity="0.7" rx="0.5"/>
      <rect x="15" y="125" width="60" height="1.5" fill="#34495e" opacity="0.7" rx="0.5"/>
    </g>
    
    <!-- Translation text - Right page -->
    <g opacity="0.6">
      <text x="150" y="35" text-anchor="middle" font-family="sans-serif" font-size="8" 
            fill="#2c3e50" font-weight="bold">English Translation</text>
      
      <rect x="115" y="45" width="70" height="1" fill="#7f8c8d" opacity="0.8" rx="0.5"/>
      <rect x="115" y="55" width="75" height="1" fill="#7f8c8d" opacity="0.8" rx="0.5"/>
      <rect x="115" y="65" width="60" height="1" fill="#7f8c8d" opacity="0.8" rx="0.5"/>
      <rect x="115" y="75" width="80" height="1" fill="#7f8c8d" opacity="0.8" rx="0.5"/>
      <rect x="115" y="85" width="65" height="1" fill="#7f8c8d" opacity="0.8" rx="0.5"/>
      <rect x="115" y="95" width="70" height="1" fill="#7f8c8d" opacity="0.8" rx="0.5"/>
      <rect x="115" y="105" width="75" height="1" fill="#7f8c8d" opacity="0.8" rx="0.5"/>
      <rect x="115" y="115" width="55" height="1" fill="#7f8c8d" opacity="0.8" rx="0.5"/>
      <rect x="115" y="125" width="70" height="1" fill="#7f8c8d" opacity="0.8" rx="0.5"/>
    </g>
    
    <!-- Verse markers -->
    <circle cx="25" cy="50" r="3" fill="#3498db" opacity="0.7"/>
    <text x="25" y="53" text-anchor="middle" font-family="sans-serif" font-size="6" fill="white">1</text>
    <circle cx="125" cy="50" r="3" fill="#3498db" opacity="0.7"/>
    <text x="125" y="53" text-anchor="middle" font-family="sans-serif" font-size="6" fill="white">1</text>
  </g>
  
  <!-- Modern UI elements overlay -->
  <g opacity="0.8">
    <!-- Search bar -->
    <rect x="50" y="40" width="300" height="25" rx="12" fill="rgba(255,255,255,0.9)" 
          stroke="#3498db" stroke-width="1.5" filter="url(#searchGlow)"/>
    <text x="65" y="56" font-family="sans-serif" font-size="10" fill="#7f8c8d">Search Quran...</text>
    
    <!-- Search icon -->
    <circle cx="320" cy="52" r="6" fill="none" stroke="#3498db" stroke-width="1.5"/>
    <path d="M324,56 L328,60" stroke="#3498db" stroke-width="1.5"/>
    
    <!-- Audio controls -->
    <g transform="translate(320,240)">
      <circle cx="0" cy="0" r="15" fill="rgba(52,152,219,0.8)"/>
      <polygon points="-5,-5 -5,5 5,0" fill="white"/>
    </g>
    
    <!-- Bookmark icon -->
    <g transform="translate(370,90)" opacity="0.7">
      <path d="M0,0 L12,0 L12,20 L6,15 L0,20 Z" fill="#e74c3c"/>
    </g>
  </g>
  
  <!-- Islamic decorative elements -->
  <g opacity="0.3">
    <!-- Corner decorations -->
    <g transform="translate(20,20)">
      <path d="M0,15 Q0,0 15,0" fill="none" stroke="#ffffff" stroke-width="1.5"/>
      <circle cx="0" cy="0" r="2" fill="#ffffff"/>
    </g>
    <g transform="translate(380,20)">
      <path d="M0,0 Q0,15 -15,15" fill="none" stroke="#ffffff" stroke-width="1.5"/>
      <circle cx="0" cy="0" r="2" fill="#ffffff"/>
    </g>
    <g transform="translate(20,280)">
      <path d="M15,0 Q0,0 0,-15" fill="none" stroke="#ffffff" stroke-width="1.5"/>
      <circle cx="0" cy="0" r="2" fill="#ffffff"/>
    </g>
    <g transform="translate(380,280)">
      <path d="M0,-15 Q0,0 -15,0" fill="none" stroke="#ffffff" stroke-width="1.5"/>
      <circle cx="0" cy="0" r="2" fill="#ffffff"/>
    </g>
  </g>
  
  <!-- Title text -->
  <text x="200" y="285" text-anchor="middle" font-family="serif" font-size="14" 
        fill="#ffffff" filter="url(#searchGlow)" font-weight="bold">
    Quran Explorer
  </text>
  
  <!-- Floating particles -->
  <g opacity="0.4">
    <circle cx="80" cy="120" r="1.5" fill="#ffffff"/>
    <circle cx="320" cy="140" r="1" fill="#ffffff"/>
    <circle cx="150" cy="180" r="1.5" fill="#ffffff"/>
    <circle cx="280" cy="100" r="1" fill="#ffffff"/>
    <circle cx="60" cy="200" r="1.5" fill="#ffffff"/>
  </g>
</svg> 